# File created by Blade
# Date/Time:  Tue Sep 30 19:12:16 2014
#---------------------------------------------------------
:version 1.10
:name HOM
:units
  mass 1.0
  length 1.000000
  angle deg
:documentation
     Acclaim Skeleton File
:root
   axis xyz
   order TX TY TZ RX RY RZ
   position 0.000000 0.000000 0.000000
   orientation 0 0 0
:bonedata
   begin
      id 1
      name Spine_dum
      direction 0.000000 1.000000 0.000000
      length 7.508948
      axis 0.0 0.0 0.0 xyz
   end
   begin
      id 2
      name LeftUpLeg_dum
      direction 1.000000 0.000000 0.000000
      length 3.000560
      axis 0.0 0.0 0.0 xyz
   end
   begin
      id 3
      name RightUpLeg_dum
      direction -1.000000 0.000000 0.000000
      length 3.000560
      axis 0.0 0.0 0.0 xyz
   end
   begin
      id 4
      name Spine
      direction 0.000000 1.000000 0.000000
      length 0.000000
      axis 0.0 0.0 0.0 xyz
      dof rx ry rz
   end
   begin
      id 5
      name Spine_dum1
      direction 0.000000 1.000000 0.000000
      length 13.861154
      axis 0.0 0.0 0.0 xyz
   end
   begin
      id 6
      name Spine_dum2
      direction 0.000000 1.000000 0.000000
      length 8.204781
      axis 0.0 0.0 0.0 xyz
   end
   begin
      id 7
      name Spine_dum3
      direction 0.000000 1.000000 0.000000
      length 8.204781
      axis 0.0 0.0 0.0 xyz
   end
   begin
      id 8
      name Head
      direction 0.000000 1.000000 0.000000
      length 4.527550
      axis 0.0 0.0 0.0 xyz
      dof rx ry rz
   end
   begin
      id 9
      name LeftShoulder
      direction 1.000000 0.000000 0.000000
      length 6.635956
      axis 0.0 0.0 -90.0 xyz
      dof rx ry rz
   end
   begin
      id 10
      name LeftArm
      direction 1.000000 0.000000 0.000000
      length 10.274218
      axis 0.0 0.0 -90.0 xyz
      dof rx ry rz
   end
   begin
      id 11
      name LeftForeArm
      direction 1.000000 0.000000 0.000000
      length 8.522147
      axis 0.0 0.0 -90.0 xyz
      dof ry rz rx
   end
   begin
      id 12
      name LeftHand
      direction 0.000000 0.000000 0.000000
      length 0.000000
      axis 0.0 0.0 -90.0 xyz
      dof rx ry rz
   end
   begin
      id 13
      name LeftHand_dum1
      direction 0.000000 0.000000 0.000000
      length 0.000000
      axis 0.0 0.0 -90.0 xyz
   end
   begin
      id 14
      name LeftHand_dum2
      direction 1.000000 0.000000 0.000000
      length 3.937000
      axis 0.0 0.0 -90.0 xyz
   end
   begin
      id 15
      name LeftHandThumb1
      direction 0.000000 0.000000 1.000000
      length 3.937000
      axis 0.0 0.0 -90.0 xyz
      dof rx rz ry
   end
   begin
      id 16
      name RightShoulder
      direction -1.000000 0.000000 0.000000
      length 6.635956
      axis 0.0 0.0 90.0 xyz
      dof rx ry rz
   end
   begin
      id 17
      name RightArm
      direction -1.000000 0.000000 0.000000
      length 10.274218
      axis 0.0 0.0 90.0 xyz
      dof rx ry rz
   end
   begin
      id 18
      name RightForeArm
      direction -1.000000 0.000000 0.000000
      length 8.522147
      axis 0.0 0.0 90.0 xyz
      dof ry rz rx
   end
   begin
      id 19
      name RightHand
      direction 0.000000 0.000000 0.000000
      length 0.000000
      axis 0.0 0.0 90.0 xyz
      dof rx ry rz
   end
   begin
      id 20
      name RightHand_dum1
      direction 0.000000 0.000000 0.000000
      length 0.000000
      axis 0.0 0.0 90.0 xyz
   end
   begin
      id 21
      name RightHand_dum2
      direction -1.000000 0.000000 0.000000
      length 3.937000
      axis 0.0 0.0 90.0 xyz
   end
   begin
      id 22
      name RightHandThumb1
      direction 0.000000 0.000000 1.000000
      length 3.937000
      axis 0.0 0.0 90.0 xyz
      dof rx rz ry
   end
   begin
      id 23
      name LeftUpLeg
      direction 0.000000 -1.000000 0.000000
      length 16.490845
      axis 0.0 0.0 0.0 xyz
      dof rx ry rz
   end
   begin
      id 24
      name LeftLeg
      direction 0.000000 -1.000000 0.000000
      length 14.556576
      axis 0.0 0.0 0.0 xyz
      dof rx ry rz
   end
   begin
      id 25
      name LeftFoot
      direction 0.000000 -0.258819 0.965926
      length 4.831116
      axis 15.0 0.0 0.0 xyz
      dof rx ry rz
   end
   begin
      id 26
      name LeftToeBase
      direction 0.000000 0.000000 1.000000
      length 2.952750
      axis 0.0 0.0 0.0 xyz
      dof rx ry rz
   end
   begin
      id 27
      name RightUpLeg
      direction 0.000000 -1.000000 0.000000
      length 16.490845
      axis 0.0 0.0 0.0 xyz
      dof rx ry rz
   end
   begin
      id 28
      name RightLeg
      direction 0.000000 -1.000000 0.000000
      length 14.556576
      axis 0.0 0.0 0.0 xyz
      dof rx ry rz
   end
   begin
      id 29
      name RightFoot
      direction 0.000000 -0.258819 0.965926
      length 4.831116
      axis 15.0 0.0 0.0 xyz
      dof rx ry rz
   end
   begin
      id 30
      name RightToeBase
      direction 0.000000 0.000000 1.000000
      length 2.952750
      axis 0.0 0.0 0.0 xyz
      dof rx ry rz
   end
:hierarchy
   begin
      root Spine_dum LeftUpLeg_dum RightUpLeg_dum
      Spine_dum Spine
      LeftUpLeg_dum LeftUpLeg
      RightUpLeg_dum RightUpLeg
      Spine Spine_dum1 Spine_dum2 Spine_dum3
      Spine_dum1 Head
      Spine_dum2 LeftShoulder
      Spine_dum3 RightShoulder
      LeftShoulder LeftArm
      LeftArm LeftForeArm
      LeftForeArm LeftHand
      LeftHand LeftHand_dum1 LeftHand_dum2
      LeftHand_dum1 LeftHandThumb1
      RightShoulder RightArm
      RightArm RightForeArm
      RightForeArm RightHand
      RightHand RightHand_dum1 RightHand_dum2
      RightHand_dum1 RightHandThumb1
      LeftUpLeg LeftLeg
      LeftLeg LeftFoot
      LeftFoot LeftToeBase
      RightUpLeg RightLeg
      RightLeg RightFoot
      RightFoot RightToeBase
   end

# File created by Blade
# Date/Time:  Thu Sep 25 17:33:50 2014
# Frame Rate: 120.000 fps
#------------------------------------------------------
:FULLY-SPECIFIED
:DEGREES
180
root -4.546608 33.421802 -3.487183 -5.697395 -14.929987 26.494989
Spine 3.496567 -0.643951 -9.095961
Head -20.980912 10.794983 -6.470004
LeftShoulder 7.828064 8.990191 18.838028
LeftArm 66.555996 34.609980 -54.090891
LeftForeArm 50.742628 -0.000000 119.012148
LeftHand -32.099068 -0.000000 33.901640
LeftHandThumb1 -26.253704 0.000000 33.147579
RightShoulder -8.195135 14.550281 -22.311594
RightArm 13.925418 -33.613540 65.135788
RightForeArm -33.499865 -0.000000 133.957247
RightHand 2.481969 -0.000000 -53.605006
RightHandThumb1 -24.326973 -0.000000 -32.862282
LeftUpLeg -62.684754 16.847050 -10.733642
LeftLeg 111.847118 -0.000000 -0.000000
LeftFoot 16.367127 10.213134 -31.235553
LeftToeBase 18.409678 -0.000000 -0.000000
RightUpLeg -18.788045 0.998266 -23.523260
RightLeg 29.541251 -0.000000 -0.000000
RightFoot -12.250211 -6.513129 -9.411643
RightToeBase -2.447984 -0.000000 0.000000
181
root -4.529155 33.520989 -3.390171 -7.230358 -14.725865 27.694061
Spine 5.182161 0.302554 -10.326451
Head -21.272236 9.875957 -7.000700
LeftShoulder 7.923810 8.949757 18.565479
LeftArm 66.264422 34.245072 -54.888656
LeftForeArm 51.448764 -0.000000 119.599210
LeftHand -32.839516 -0.000000 34.321942
LeftHandThumb1 -26.253704 0.000000 33.147579
RightShoulder -7.297915 15.018317 -22.366855
RightArm 14.137276 -32.546575 65.500533
RightForeArm -33.043300 -0.000000 133.936013
RightHand 4.449451 -0.000000 -53.106251
RightHandThumb1 -24.326973 -0.000000 -32.862282
LeftUpLeg -64.592041 16.943743 -9.705441
LeftLeg 113.704747 -0.000000 -0.000000
LeftFoot 15.582356 9.922580 -31.272565
LeftToeBase 20.352703 -0.000000 -0.000000
RightUpLeg -17.318853 0.994954 -24.768136
RightLeg 29.229041 -0.000000 -0.000000
RightFoot -12.289294 -6.143061 -9.295115
RightToeBase -2.394423 -0.000000 0.000000
182
root -4.469702 33.627386 -3.302378 -8.990982 -14.733147 29.082030
Spine 7.179467 1.626234 -11.581090
Head -21.666967 8.873909 -7.571592
LeftShoulder 8.237027 8.616015 18.386116
LeftArm 65.821510 33.895740 -55.913407
LeftForeArm 52.106054 -0.000000 120.110070
LeftHand -32.981838 0.000000 34.591575
LeftHandThumb1 -26.253704 0.000000 33.147579
RightShoulder -6.442904 15.723848 -22.554767
RightArm 14.118373 -31.332920 65.953090
RightForeArm -32.276540 -0.000000 134.010126
RightHand 6.371908 -0.000000 -52.484151
RightHandThumb1 -24.326973 -0.000000 -32.862282
LeftUpLeg -66.394645 17.343286 -8.862691
LeftLeg 115.266657 -0.000000 -0.000000
LeftFoot 14.950967 9.587973 -31.465989
LeftToeBase 21.902984 -0.000000 -0.000000
RightUpLeg -15.894740 1.258674 -26.255538
RightLeg 28.946140 -0.000000 -0.000000
RightFoot -12.302149 -5.551462 -8.780059
RightToeBase -2.268653 -0.000000 0.000000
183
root -4.431922 33.728271 -3.194053 -10.898901 -14.627666 30.430044
Spine 9.265828 2.883729 -12.813525
Head -21.837521 8.008969 -8.065541
LeftShoulder 8.517962 8.440595 18.289715
LeftArm 65.557620 33.581562 -56.851325
LeftForeArm 52.895365 -0.000000 120.398265
LeftHand -33.338373 0.000000 35.332496
LeftHandThumb1 -26.253704 0.000000 33.147579
RightShoulder -5.528192 16.368484 -22.513441
RightArm 14.474113 -30.597043 65.971906
RightForeArm -32.856071 -0.000000 134.270877
RightHand 5.745677 -0.000000 -52.755872
RightHandThumb1 -24.326973 -0.000000 -32.862282
LeftUpLeg -67.933331 17.857136 -7.818756
LeftLeg 116.605993 -0.000000 -0.000000
LeftFoot 14.441869 8.955742 -31.816837
LeftToeBase 22.827055 -0.000000 -0.000000
RightUpLeg -14.316123 1.340246 -27.695961
RightLeg 28.793322 -0.000000 -0.000000
RightFoot -12.407642 -4.843111 -8.543136
RightToeBase -2.220886 -0.000000 0.000000
184
root -4.398312 33.815395 -3.078082 -12.637705 -14.563220 31.713592
Spine 11.113071 4.506075 -13.884608
Head -21.928548 6.873977 -8.396298
LeftShoulder 9.009376 7.994172 18.318640
LeftArm 65.126998 33.631160 -58.003750
LeftForeArm 53.493980 -0.000000 120.638851
LeftHand -33.402306 -0.000000 35.973438
LeftHandThumb1 -26.253704 0.000000 33.147579
RightShoulder -5.218475 16.826664 -22.707637
RightArm 14.762562 -29.980600 66.230839
RightForeArm -32.928579 0.000000 134.470244
RightHand 5.446046 -0.000000 -53.033613
RightHandThumb1 -24.326973 -0.000000 -32.862282
LeftUpLeg -69.724538 18.610226 -6.810395
LeftLeg 117.735574 -0.000000 -0.000000
LeftFoot 14.154894 8.754910 -32.300743
LeftToeBase 23.488904 -0.000000 -0.000000
RightUpLeg -12.940452 1.411729 -29.088783
RightLeg 28.699431 -0.000000 -0.000000
RightFoot -12.640955 -4.086261 -8.227925
RightToeBase -2.130482 -0.000000 0.000000
